<?xml version="1.0" encoding="UTF-8"?>
<svg width="25px" height="24px" viewBox="0 0 25 24" version="1.1" xmlns="http://www.w3.org/2000/svg" xmlns:xlink="http://www.w3.org/1999/xlink">
    <!-- Generator: Sketch 42 (36781) - http://www.bohemiancoding.com/sketch -->
    <title>eraser</title>
    <desc>Created with Sketch.</desc>
    <defs></defs>
    <g id="Page-1" stroke="none" stroke-width="1" fill="none" fill-rule="evenodd">
        <g id="Flat---Filled" transform="translate(-450.000000, -501.000000)" fill="#000000">
            <g id="eraser" transform="translate(449.000000, 500.500000)">
                <path d="M25.8535,8.6513 L17.8535,0.6513 C17.6585,0.4563 17.3415,0.4563 17.1465,0.6513 L5.1465,12.6513 C4.9515,12.8463 4.9515,13.1633 5.1465,13.3583 L13.1465,21.3583 C13.2445,21.4563 13.3725,21.5053 13.4995,21.5053 C13.6275,21.5053 13.7555,21.4563 13.8535,21.3583 L25.8535,9.3583 C26.0485,9.1633 26.0485,8.8463 25.8535,8.6513 M17.9995,23.0053 C17.9995,23.2813 17.7765,23.5053 17.4995,23.5053 L10.9555,23.5053 L5.0475,23.5053 L1.4995,23.5053 C1.2235,23.5053 0.9995,23.2813 0.9995,23.0053 C0.9995,22.7283 1.2235,22.5053 1.4995,22.5053 L3.8695,22.5053 L1.5565,20.1133 C0.8185,19.3483 0.8185,18.1053 1.5565,17.3403 L4.5835,14.2103 L12.4395,22.0653 C12.4595,22.0863 12.4845,22.1003 12.5055,22.1203 L12.1335,22.5053 L17.4995,22.5053 C17.7765,22.5053 17.9995,22.7283 17.9995,23.0053" id="Fill-196"></path>
            </g>
        </g>
    </g>
</svg>